<svg xmlns="http://www.w3.org/2000/svg" width="1200" height="700" viewBox="0 0 1200 700" role="img" aria-label="Infantil">
  <defs>
    <linearGradient id="bg" x1="0" y1="0" x2="1" y2="1">
      <stop offset="0%" stop-color="#7dd3fc"/>
      <stop offset="50%" stop-color="#38bdf8"/>
      <stop offset="100%" stop-color="#0ea5e9"/>
    </linearGradient>
    <linearGradient id="sun" x1="0" y1="0" x2="1" y2="1">
      <stop offset="0%" stop-color="#fde68a"/>
      <stop offset="100%" stop-color="#f59e0b"/>
    </linearGradient>
  </defs>
  <rect width="1200" height="700" fill="url(#bg)"/>
  <circle cx="980" cy="120" r="90" fill="url(#sun)" opacity="0.9"/>
  <circle cx="220" cy="140" r="60" fill="#e0f2fe" opacity="0.75"/>
  <circle cx="320" cy="170" r="45" fill="#e0f2fe" opacity="0.65"/>
  <circle cx="260" cy="200" r="55" fill="#e0f2fe" opacity="0.6"/>
  <path d="M0 520 C 140 470, 280 480, 420 520 S 700 590, 900 520 S 1100 470, 1200 520 L 1200 700 L 0 700 Z" fill="#dbeafe" opacity="0.9"/>
  <path d="M0 560 C 180 520, 360 520, 540 560 S 840 640, 1060 560 S 1180 520, 1200 540 L 1200 700 L 0 700 Z" fill="#bfdbfe" opacity="0.9"/>
</svg>
